<svg width="311" height="169" viewBox="0 0 311 169" fill="none" xmlns="http://www.w3.org/2000/svg">
<path d="M130.397 53.404L137.399 65.5813L60.6655 65.4467L56.9127 65.4457L58.781 68.6948L80.5813 106.583L74.1877 117.625L37.3863 53.6265L37.5657 53.3142L130.397 53.404ZM139.347 69.9157L91.9764 151.651L77.1086 151.625L116.331 83.9594L118.215 80.7113L114.463 80.71L70.6536 80.6384L64.406 69.7836L139.347 69.9157ZM110.697 85.0353L72.5992 150.762L27.0288 71.5115L34.881 57.9528L72.2995 123.033L74.1724 126.288L76.0523 123.035L98.0769 85.0181L110.697 85.0353Z" fill="#F0F0F0"/>
<path d="M139.347 69.9157L91.9764 151.651L77.1086 151.625L116.331 83.9594L118.215 80.7113L114.463 80.71L70.6536 80.6384L64.406 69.7836L139.347 69.9157Z" fill="white"/>
<path d="M153.144 151C150.776 151 148.6 150.424 146.616 149.272C144.632 148.12 143.064 146.552 141.912 144.568C140.76 142.584 140.184 140.408 140.184 138.04V94.84C140.184 92.472 140.76 90.296 141.912 88.312C143.064 86.328 144.632 84.76 146.616 83.608C148.6 82.456 150.776 81.88 153.144 81.88H196.344C198.712 81.88 200.856 82.456 202.776 83.608C204.76 84.76 206.328 86.328 207.48 88.312C208.696 90.296 209.304 92.472 209.304 94.84V138.04C209.304 140.408 208.696 142.584 207.48 144.568C206.328 146.552 204.76 148.12 202.776 149.272C200.856 150.424 198.712 151 196.344 151H153.144ZM153.432 139.384H195.96C196.408 139.384 196.792 139.224 197.112 138.904C197.496 138.584 197.688 138.168 197.688 137.656V95.224C197.688 94.712 197.496 94.296 197.112 93.976C196.792 93.656 196.408 93.496 195.96 93.496H153.432C152.984 93.496 152.568 93.656 152.184 93.976C151.864 94.296 151.704 94.712 151.704 95.224V137.656C151.704 138.168 151.864 138.584 152.184 138.904C152.568 139.224 152.984 139.384 153.432 139.384ZM219.876 151V81.88H233.028L277.38 134.68V81.88H288.996V151H275.844L231.396 98.104V151H219.876Z" fill="white"/>
</svg>
