<svg width="157" height="157" viewBox="0 0 157 157" fill="none" xmlns="http://www.w3.org/2000/svg">
<path d="M120.667 49.4193L127.148 60.6881L56.139 60.5635L52.6663 60.5626L54.3951 63.5692L74.5689 98.6301L68.6523 108.849L34.5967 49.6252L34.7628 49.3363L120.667 49.4193ZM128.95 64.6991L85.1137 140.336L71.3553 140.311L107.651 77.6949L109.395 74.6892L105.922 74.688L65.3819 74.6217L59.6004 64.5768L128.95 64.6991ZM102.438 78.6905L67.1823 139.514L25.0121 66.1758L32.2783 53.6288L66.905 113.853L68.6382 116.865L70.3778 113.855L90.759 78.6747L102.438 78.6905Z" fill="#FF6B5B"/>
<path d="M128.95 64.6991L85.1137 140.336L71.3553 140.311L107.651 77.6949L109.395 74.6892L105.922 74.688L65.3819 74.6217L59.6005 64.5768L128.95 64.6991Z" fill="#F44336"/>
</svg>
