<svg width="157" height="160" viewBox="0 0 157 160" fill="none" xmlns="http://www.w3.org/2000/svg">
<path d="M149 88C149 97.3239 147.164 106.556 143.595 115.171C140.027 123.785 134.798 131.612 128.205 138.205C121.612 144.798 113.785 150.027 105.17 153.595C96.5564 157.164 87.3238 159 78 159C68.6761 159 59.4436 157.164 50.8294 153.595C42.2153 150.027 34.3883 144.798 27.7954 138.205C21.2024 131.612 15.9726 123.785 12.4045 115.171C8.83644 106.556 6.99997 97.3239 6.99997 88C6.99997 69.1696 14.4803 51.1105 27.7954 37.7954C41.1105 24.4803 59.1696 17 78 17C96.8303 17 114.889 24.4803 128.205 37.7954C141.52 51.1105 149 69.1696 149 88Z" stroke="#F8F8F8" stroke-width="2" stroke-linecap="round" stroke-linejoin="round"/>
<path d="M120.667 49.4193L127.148 60.6881L56.139 60.5635L52.6663 60.5626L54.3951 63.5692L74.5689 98.6301L68.6523 108.849L34.5967 49.6252L34.7628 49.3363L120.667 49.4193ZM128.95 64.6991L85.1137 140.336L71.3553 140.311L107.651 77.6949L109.395 74.6892L105.922 74.688L65.3819 74.6217L59.6004 64.5768L128.95 64.6991ZM102.438 78.6905L67.1823 139.514L25.0121 66.1758L32.2783 53.6288L66.905 113.853L68.6382 116.865L70.3778 113.855L90.759 78.6747L102.438 78.6905Z" fill="#F0F0F0"/>
<path d="M128.95 64.6991L85.1137 140.336L71.3553 140.311L107.651 77.6949L109.395 74.6892L105.922 74.688L65.3819 74.6217L59.6005 64.5768L128.95 64.6991Z" fill="white"/>
</svg>
